<?xml version="1.0" encoding="utf-8"?>
<!-- Generator: Adobe Illustrator 24.3.0, SVG Export Plug-In . SVG Version: 6.00 Build 0)  -->
<svg version="1.1" id="Layer_1" xmlns="http://www.w3.org/2000/svg" xmlns:xlink="http://www.w3.org/1999/xlink" x="0px" y="0px"
	 viewBox="0 0 50 50" style="enable-background:new 0 0 50 50;" xml:space="preserve">
<style type="text/css">
	.st0{fill:#FFFFFF;}
</style>
<path id="surface1" class="st0" d="M25.1,12C25,12,25,12,25.1,12l-8.2,0c-0.3,0-0.6,0.2-0.8,0.5l-3,5.2l-2.6-4.3C9.9,12.5,9,12,8,12
	H0.9c-0.5,0-1,0.5-0.9,1.1c0,0.2,0.1,0.3,0.1,0.4l7.8,13.7c0,0.1,0.1,0.2,0.1,0.3L14.7,39c1.1,1.9,3,3,5.2,3h4.6
	c0.2,0.1,0.5,0.1,0.7,0H33c0.4,0,0.7-0.2,0.9-0.5l3-5.3l2.7,4.3C40.1,41.5,41,42,42,42h7c0.4,0,0.7-0.2,0.9-0.5c0.2-0.3,0.2-0.7,0-1
	L42,26.6v0l0-0.1l0,0c0,0,0-0.1-0.1-0.1L35.3,15c-1.1-1.9-3-3-5.2-3h-4.8C25.2,12,25.1,12,25.1,12z M2.7,14H8c0.3,0,0.6,0.2,0.8,0.4
	l3.2,5.3l-3,5.2L2.7,14z M17.6,14h5.8l-3.1,5.4v0l0,0c0,0.1-0.1,0.1-0.1,0.2l-3.9,6.9c0,0-0.1,0.1-0.1,0.2v0
	c-0.2,0.4-0.1,0.9,0.3,1.2l0,0l3.7,6.5c0.2,0.3,0.5,0.5,0.9,0.5h6.1L24.3,40h-4.4c-1.4,0-2.7-0.8-3.4-2l-6.3-11l3.8-6.6
	c0.1-0.1,0.2-0.3,0.3-0.5L17.6,14z M25.7,14h4.4c1.4,0,2.7,0.8,3.4,2l6.3,11L36,33.7c0,0.1-0.1,0.1-0.1,0.2L32.4,40h-5.8l3.1-5.4
	l0-0.1c0,0,0-0.1,0.1-0.1l3.9-6.9c0.2-0.3,0.2-0.7,0-1l0,0v0c0-0.1-0.1-0.1-0.1-0.2l-3.8-6.7c-0.2-0.3-0.5-0.5-0.8-0.5h-6.2L25.7,14
	z M21.6,21.1h6.7l3.4,5.9l-3.4,5.9h-6.7L18.3,27l1.7-2.9L21.6,21.1z M41,29L47.3,40H42c-0.3,0-0.6-0.1-0.8-0.4L38,34.3L41,29z"/>
</svg>
