<svg xmlns="http://www.w3.org/2000/svg" height="24" width="24" viewBox="0 0 24 24">
    <path d="M12 23.25c-3.975 0-7.438-.251-9.262-.673a.496.496 0 0 1-.244-.137c-1.13-1.147-1.201-4.439-1.177-8 .003-.432.006-.824.003-1.156l.003-1.324c.012-.654.041-2.205.088-3.577.009-.276.24-.508.516-.483.276.01.492.241.483.517a250.178 250.178 0 0 0-.087 3.562L2.32 13.28c.003.333 0 .73-.003 1.167-.015 2.146-.042 6.08.802 7.19 1.795.385 5.09.613 8.881.613 1.875 0 3.657-.055 5.155-.159 1.605-.11 2.856-.262 3.725-.452.845-1.109.817-5.045.803-7.191-.003-.438-.006-.835-.003-1.172l-.021-1.801c-.008-.513-.019-1.219-.039-1.941l-.03-1.122a.501.501 0 0 1 .488-.512c.272-.028.504.212.512.488l.03 1.121c.019.724.03 1.433.039 1.949l.021 1.821c-.003.337 0 .729.003 1.161.024 3.561-.047 6.853-1.177 8a.5.5 0 0 1-.241.136c-.925.22-2.284.392-4.041.513-1.52.105-3.327.161-5.224.161zm9.15-1.16h.01-.01zm-2.246-1.185c-2.133-.079-3.357-1.46-3.608-2.942-2.01.266-4.585.266-6.593 0-.25 1.482-1.472 2.863-3.589 2.941-.726-.001-1.604-.003-2.101-.658-.446-.588-.457-1.524-.036-3.034l1.123-4.01c.771-2.163 1.944-3.288 3.4-3.288.804.003 1.621.006 2.563.929.633-.058 1.28-.082 1.935-.085.652.01 1.301.028 1.934.085.944-.926 1.764-.927 2.558-.928h.007c1.458 0 2.629 1.125 3.39 3.253l1.133 4.044c.421 1.511.41 2.446-.036 3.035-.496.656-1.374.657-2.08.658zm-3.156-4.013a.502.502 0 0 1 .5.5c0 1.2.918 2.449 2.674 2.514.597-.001 1.083-.021 1.266-.262.129-.17.284-.678-.13-2.162l-1.122-4.01c-.412-1.148-1.18-2.558-2.438-2.558-.774.002-1.282.003-2.004.789a.5.5 0 0 1-.42.159 19.799 19.799 0 0 0-2.072-.104c-.72-.009-1.403.033-2.075.104a.493.493 0 0 1-.419-.158c-.723-.785-1.229-.786-1.996-.788h-.004c-1.264 0-2.03 1.408-2.453 2.59l-1.112 3.977c-.414 1.483-.259 1.991-.13 2.161.183.241.669.261 1.286.262 1.736-.065 2.655-1.314 2.655-2.514a.5.5 0 0 1 .58-.494c2.155.352 5.181.352 7.335 0a.506.506 0 0 1 .079-.006z"/>
    <path d="M21.272 8.848c-1.061 0-1.763-.669-2.202-1.342a2.563 2.563 0 0 1-.418.578c-.494.507-1.17.765-2.012.765-1.106 0-1.812-.761-2.232-1.477-.437.765-1.196 1.477-2.397 1.477-1.205 0-1.972-.718-2.414-1.487-.419.718-1.126 1.486-2.237 1.486-1.212 0-1.956-.917-2.366-1.684-.493.757-1.294 1.684-2.266 1.684C1.224 8.848 0 7.559 0 5.974v-.997c.028-.897 2.218-3.314 3.241-3.929a.491.491 0 0 1 .214-.069C4.44.893 9.22.85 12.219.848c3.094 0 5.263.021 8.3.129a.5.5 0 0 1 .24.071c1.023.614 3.213 3.03 3.241 3.913v1.013c0 1.853-.969 2.874-2.728 2.874zm-2.334-3.333a.5.5 0 0 1 .483.373c.005.02.534 1.96 1.85 1.96C22.467 7.848 23 7.27 23 5.974v-.997c-.084-.414-1.691-2.359-2.652-3.005-3.022-.106-5.199-.117-8.347-.124-3.191.001-7.272.049-8.339.118-.96.64-2.578 2.597-2.664 3.046L1 5.974c0 1.033.775 1.874 1.728 1.874.716 0 1.575-1.375 1.879-2.041a.5.5 0 0 1 .938.077c.005.02.544 1.964 1.815 1.964 1.265 0 1.776-1.937 1.781-1.957a.49.49 0 0 1 .504-.375.501.501 0 0 1 .474.413c.014.078.357 1.919 1.893 1.919 1.545 0 1.867-1.894 1.87-1.913a.5.5 0 0 1 .471-.42.513.513 0 0 1 .507.376c.005.02.515 1.957 1.781 1.957.561 0 .997-.155 1.295-.462.511-.525.503-1.35.503-1.358a.5.5 0 0 1 .499-.513zM14 15.5a.498.498 0 0 1-.376-.171l-1.625-1.856-1.623 1.856a.501.501 0 0 1-.753-.659l1.999-2.287a.498.498 0 0 1 .752 0l2.001 2.287a.5.5 0 0 1-.375.83z"/>
    <path d="M11.999 17.031a.5.5 0 0 1-.5-.5v-3.818a.5.5 0 0 1 1 0v3.818a.5.5 0 0 1-.5.5z"/>
</svg>