<?xml version="1.0" standalone="no"?>
<!DOCTYPE svg PUBLIC "-//W3C//DTD SVG 20010904//EN"
 "http://www.w3.org/TR/2001/REC-SVG-20010904/DTD/svg10.dtd">
<svg version="1.0" xmlns="http://www.w3.org/2000/svg"
 width="200.000000pt" height="200.000000pt" viewBox="0 0 200.000000 200.000000"
 preserveAspectRatio="xMidYMid meet">
<metadata>
Created by potrace 1.14, written by Peter Selinger 2001-2017
</metadata>
<g transform="translate(0.000000,200.000000) scale(0.100000,-0.100000)"
fill="#000000" stroke="none">
<path d="M870 1993 c-291 -44 -540 -200 -699 -438 -119 -178 -172 -362 -166
-579 4 -166 28 -270 95 -411 84 -175 235 -336 410 -437 45 -26 159 -76 193
-84 9 -2 25 -6 35 -9 100 -25 161 -32 277 -30 72 2 141 5 155 9 14 3 39 8 55
12 17 3 64 17 105 32 232 80 425 244 551 468 25 45 76 172 85 211 37 170 40
350 9 483 -75 320 -290 577 -590 702 -77 32 -72 31 -165 53 -61 15 -292 27
-350 18z"/>
</g>
</svg>
